<svg xmlns="http://www.w3.org/2000/svg" width="84" height="62" fill="none"><path fill="#603809" d="M20.46 61.38q-5.28 0-9.24-1.98-3.96-2.2-6.38-5.72-2.2-3.52-3.52-8.36T0 35.2q0-10.78 5.5-20.24Q11.22 5.5 23.1 0l1.98 3.96q-6.16 2.86-11 8.36-4.62 5.28-5.5 11.22-1.32 4.62-.22 9.02 4.84-5.28 12.98-5.28 7.48 0 12.32 4.62 4.84 4.4 4.84 12.32 0 7.7-5.06 12.54-5.06 4.62-12.98 4.62m45.32 0q-5.28 0-9.24-1.98-3.96-2.2-6.38-5.72-2.2-3.52-3.52-8.36T45.32 35.2q0-10.78 5.5-20.24Q56.54 5.5 68.42 0l1.98 3.96q-6.16 2.86-11 8.36-4.62 5.28-5.5 11.22-1.32 4.62-.22 9.02 4.84-5.28 12.98-5.28 7.48 0 12.32 4.62 4.84 4.4 4.84 12.32 0 7.7-5.06 12.54-5.06 4.62-12.98 4.62"/></svg>