<?xml version="1.0" encoding="utf-8"?><svg viewBox="0 0 84 62" xmlns="http://www.w3.org/2000/svg" xmlns:xlink="http://www.w3.org/1999/xlink"><style>:root>svg{display:none}:root>svg:target{display:block}</style><svg viewBox="0 0 16 16" id="array-left" xmlns="http://www.w3.org/2000/svg"><path d="M8 9v7L0 8l8-8v7h8v2H8Z"/></svg><svg viewBox="0 0 16 16" id="array-right" xmlns="http://www.w3.org/2000/svg"><path d="M8 9v7l8-8-8-8v7H0v2z"/></svg><svg viewBox="0 0 20 20" id="facebook" xmlns="http://www.w3.org/2000/svg"><path d="M10 0C4.477 0 0 4.477 0 10c0 4.991 3.657 9.128 8.438 9.879V12.89h-2.54V10h2.54V7.797c0-2.506 1.492-3.89 3.777-3.89 1.094 0 2.238.195 2.238.195v2.46h-1.26c-1.243 0-1.63.771-1.63 1.562V10h2.773l-.443 2.89h-2.33v6.989C16.343 19.129 20 14.99 20 10c0-5.523-4.477-10-10-10"/></svg><svg viewBox="0 0 20 20" id="instagram" xmlns="http://www.w3.org/2000/svg"><path d="M10 0c2.717 0 3.056.01 4.122.06s1.79.217 2.428.465c.66.254 1.216.598 1.772 1.153.509.5.902 1.105 1.153 1.772.247.637.415 1.363.465 2.428.047 1.066.06 1.405.06 4.122s-.01 3.056-.06 4.122-.218 1.79-.465 2.428a4.9 4.9 0 0 1-1.153 1.772c-.5.508-1.105.902-1.772 1.153-.637.247-1.363.415-2.428.465-1.066.047-1.405.06-4.122.06s-3.056-.01-4.122-.06-1.79-.218-2.428-.465a4.9 4.9 0 0 1-1.772-1.153A4.9 4.9 0 0 1 .525 16.55C.277 15.913.11 15.187.06 14.122.013 13.056 0 12.717 0 10s.01-3.056.06-4.122.217-1.79.465-2.428a4.9 4.9 0 0 1 1.153-1.772A4.9 4.9 0 0 1 3.45.525C4.088.277 4.812.11 5.878.06 6.944.013 7.283 0 10 0m0 5a5 5 0 1 0 0 10 5 5 0 0 0 0-10m6.5-.25a1.25 1.25 0 1 0-2.5 0 1.25 1.25 0 0 0 2.5 0M10 7a3 3 0 1 1 0 6 3 3 0 0 1 0-6"/></svg><svg viewBox="0 0 21 17" id="twitter" xmlns="http://www.w3.org/2000/svg"><path d="M20.383 1.967a8.4 8.4 0 0 1-2.402.658 4.2 4.2 0 0 0 1.84-2.314c-.82.488-1.719.83-2.656 1.015a4.182 4.182 0 0 0-7.126 3.814A11.87 11.87 0 0 1 1.419.77a4.17 4.17 0 0 0-.566 2.103c0 1.45.738 2.731 1.86 3.481a4.2 4.2 0 0 1-1.894-.523v.052a4.185 4.185 0 0 0 3.355 4.101 4.2 4.2 0 0 1-1.89.072 4.185 4.185 0 0 0 3.907 2.905A8.4 8.4 0 0 1 0 14.693a11.83 11.83 0 0 0 6.41 1.88c7.693 0 11.9-6.373 11.9-11.9q0-.271-.013-.54a8.5 8.5 0 0 0 2.087-2.165z"/></svg><svg viewBox="0 0 84 62" id="upper-marks" xmlns="http://www.w3.org/2000/svg"><path d="M20.46 61.38q-5.28 0-9.24-1.98-3.96-2.2-6.38-5.72-2.2-3.52-3.52-8.36T0 35.2q0-10.78 5.5-20.24Q11.22 5.5 23.1 0l1.98 3.96q-6.16 2.86-11 8.36-4.62 5.28-5.5 11.22-1.32 4.62-.22 9.02 4.84-5.28 12.98-5.28 7.48 0 12.32 4.62 4.84 4.4 4.84 12.32 0 7.7-5.06 12.54-5.06 4.62-12.98 4.62m45.32 0q-5.28 0-9.24-1.98-3.96-2.2-6.38-5.72-2.2-3.52-3.52-8.36T45.32 35.2q0-10.78 5.5-20.24Q56.54 5.5 68.42 0l1.98 3.96q-6.16 2.86-11 8.36-4.62 5.28-5.5 11.22-1.32 4.62-.22 9.02 4.84-5.28 12.98-5.28 7.48 0 12.32 4.62 4.84 4.4 4.84 12.32 0 7.7-5.06 12.54-5.06 4.62-12.98 4.62"/></svg><svg viewBox="0 0 20 16" id="youtube" xmlns="http://www.w3.org/2000/svg"><path d="M19.543 2.498C20 4.28 20 8 20 8s0 3.72-.457 5.502c-.254.985-.997 1.76-1.938 2.022C15.896 16 10 16 10 16s-5.893 0-7.605-.476c-.945-.266-1.687-1.04-1.938-2.022C0 11.72 0 8 0 8s0-3.72.457-5.502c.254-.985.997-1.76 1.938-2.022C4.107 0 10 0 10 0s5.896 0 7.605.476c.945.266 1.687 1.04 1.938 2.022M8 11.5 14 8 8 4.5z"/></svg></svg>